<svg width="19" height="19" viewBox="0 0 19 19" fill="none" xmlns="http://www.w3.org/2000/svg">
<path fill-rule="evenodd" clip-rule="evenodd" d="M8.58333 2.6665C6.96993 2.6665 5.42261 3.30742 4.28177 4.44827C3.14092 5.58912 2.5 7.13644 2.5 8.74984C2.5 10.3632 3.14092 11.9106 4.28177 13.0514C5.42261 14.1923 6.96993 14.8332 8.58333 14.8332C10.1967 14.8332 11.7441 14.1923 12.8849 13.0514C14.0257 11.9106 14.6667 10.3632 14.6667 8.74984C14.6667 7.13644 14.0257 5.58912 12.8849 4.44827C11.7441 3.30742 10.1967 2.6665 8.58333 2.6665ZM2.86755 3.03406C4.38347 1.51814 6.4395 0.666504 8.58333 0.666504C10.7272 0.666504 12.7832 1.51814 14.2991 3.03406C15.815 4.54998 16.6667 6.606 16.6667 8.74984C16.6667 10.5563 16.062 12.3004 14.9647 13.7115L18.0411 16.7934L16.6256 18.2063L13.5512 15.1264C12.139 16.2267 10.3924 16.8332 8.58333 16.8332C6.4395 16.8332 4.38347 15.9815 2.86755 14.4656C1.35163 12.9497 0.5 10.8937 0.5 8.74984C0.5 6.606 1.35163 4.54998 2.86755 3.03406Z" fill="#FDFDFD" fill-opacity="0.75"/>
</svg>
